<?xml version="1.0" encoding="UTF-8"?><svg id="Layer_1" xmlns="http://www.w3.org/2000/svg" width="935.04" height="521.68" xmlns:xlink="http://www.w3.org/1999/xlink" viewBox="0 0 935.04 521.68"><defs><style>.cls-1{fill:url(#linear-gradient);}</style><linearGradient id="linear-gradient" x1="467.52" y1="521.68" x2="467.52" y2="0" gradientUnits="userSpaceOnUse"><stop offset="0" stop-color="#512462"/><stop offset=".22" stop-color="#4d2c71"/><stop offset=".72" stop-color="#483b8e"/><stop offset="1" stop-color="#46419a"/></linearGradient></defs><path class="cls-1" d="M935.04,292.68v229H.04V247.68c0-.07,0-.15-.02-.22-.29-4.13,2.33-6.45,5.93-7.54,3.88-1.17,5.44,1.73,6.6,4.57.13.33.26.65.38.98.12.33.24.65.36.98.23.65.47,1.29.74,1.9h0c.16.39.34.77.54,1.13.06.12.13.24.21.37h0c.14.24.29.47.46.7.04.06.08.12.13.18.06.07.11.15.18.22.36.45.79.87,1.29,1.24.18.14.38.28.59.4.11.07.22.14.34.2.34.2.72.38,1.13.54,6.05,2.4,13.37,1.25,18.26-3.16.26-.23.52-.46.78-.67.01,0,.03-.02.04-.03.33-.28.66-.55,1-.8.02-.02.04-.03.06-.04.34-.27.69-.52,1.04-.75.03-.03.06-.05.09-.06.28-.2.56-.39.85-.56.16-.11.32-.21.48-.29.2-.13.4-.25.61-.36.2-.12.4-.23.61-.33.15-.09.31-.17.47-.25.27-.14.54-.27.82-.39.15-.08.3-.15.45-.21.33-.15.66-.28.99-.41.02-.02.05-.03.08-.03.34-.14.67-.26,1.02-.38.12-.05.25-.09.39-.13.38-.13.77-.25,1.16-.36.44-.13.88-.25,1.33-.35.44-.11.89-.21,1.35-.29.28-.06.56-.11.84-.15.25-.05.5-.09.76-.12.39-.06.79-.11,1.19-.15.45-.05.91-.09,1.36-.12,1.5-.11,3.02-.13,4.56-.07,5.32.21,12.07-3.43,12.66-8.32.47-3.99-.44-8.53-2-12.29-3.85-9.26-2.27-18.59-1.19-27.87.76-6.5,8.14-9.18,13.94-7.67,13.23,3.43,13.31,14.89,16.4,24.54,2.19,6.82,3.42,13.96,9.02,19.19,5.03,4.7,11.32,3.44,13.8-2.93,4.89,1.06,9.36-2.1,11.07-7.52.94-2.98,2.1-5.94,3.61-8.67.67-1.23,2.36-2,3.72-2.73,3.06-1.64,6.52-2.71,9.26-4.77,6.14-4.6,12.29-8.51,20.47-6.38,1.43.38,3.09.88,4.41.51,8.79-2.46,15.02,2.88,21.91,6.65,6.97,3.8,13.97,7.87,22.65,5.03,6.95-2.27,8.19-6.19,3.27-11.44-1.44-1.52-2.81-3.49-3.27-5.47-2.13-9.11-4.66-18.2-3.85-27.72.83-9.78,9.74-19.44,19.13-20.73.64-.09,1.43-.22,1.94.06,6.47,3.42,14.18,5.39,17.3,13.04,1.83,4.5,3.2,9.24,4.34,13.98,1.94,8.05,3.31,16.24,5.37,24.25,1.07,4.15,4.61,6.17,8.78,6.14,4.59-.04,8.27-2.17,10.61-6.29.32-.57.63-1.14.94-1.69,6.57,2.59,12.31.61,16.36-5.59.46-.69.81-1.45,1.18-2.2,2.53-5.25,4.62-9.82,12.59-8.24,7.81,1.55,11.65-6.04,16.61-10.64,1.34-1.24,3.51-3.01,4.78-2.65,8.87,2.48,15.36-1.89,21.77-6.82.4-.3.78-.66,1.22-.87,9.56-4.45,18.2-9.85,23.14-19.83.74-1.5,3.58-2.62,5.53-2.74,6.32-.4,8.13-2.06,8.4-8.45.08-1.75.34-3.84,1.33-5.16,3.51-4.7,7.19-9.31,11.15-13.63,11.78-12.86,23.72-25.58,35.61-38.34,4.48-4.81,8.98-9.61,13.47-14.41,2.3-2.46,2.46-9.02.44-11.84-.95-1.32-2.61-3.35-2.2-4.23,2.45-5.19-.29-11.88,4.8-16.25.62-.54.7-1.7,1.1-2.54.73-1.55,1.18-3.39,2.33-4.53,2.03-2.02,4.01-3.41,2.84-7.05-.73-2.26.43-5.12,1.33-7.76,3.16,5.82,9.67,10.05,7.32,18.01-.3,1.03.29,2.89,1.13,3.61,7.67,6.64,5.07,14.08,2.27,21.83-.86,2.38-1.36,5.91-.21,7.81,5.33,8.73,11.24,17.11,17.08,25.53,2.17,3.13,5.07,5.8,7.02,9.05,6.53,10.94,17.24,16.66,27.49,23.17,7.28,4.61,13.58,10.26,13.01,20.33-.09,1.52,2.11,3.77,3.8,4.69,9.54,5.26,19.33,10.07,28.87,15.33,9,4.97,17.77,10.35,26.69,15.48,6.48,3.72,12.99,7.39,19.57,10.93,2.93,1.58,5.57-.38,6.14-4.61.29-2.12-.6-4.51.04-6.45,1.44-4.43,3.15-8.86,5.43-12.9,1.61-2.85,4.53-4.92,6.53-7.6,1.86-2.5,9.84-5.85,12.96-5.23,15.82,3.15,23.25,20.78,20.54,33.16-.7,3.2-.61,6.57-1.09,9.83-.18,1.17-.8,2.4-1.56,3.32-3.24,3.93-3.48,9.18-.45,13.31,2.8,3.83,7.68,4.8,12.45,3.35,3.96-1.19,8.35-1.02,12.25-2.33,2.81-.95,5.35-3.11,7.62-5.15,3.46-3.12,6.48-6.28,11.7-2.95,1.28.82,3.75.08,5.58-.35,3.78-.9,7.55-1.91,11.23-3.16,6.36-2.17,10.56,1.1,14.05,5.59,2.55,3.26,5.23,5.05,9.62,4.71,6.07-.48,7.52,5.41,10.4,8.92,2.68,3.26,3.87,7.76,9.35,7.71.78,0,1.64,1.88,2.36,2.96,3.49,5.29,14.6,8.45,19.85,5.22,1.29-.8,2-3.22,2.2-4.98.23-2.03-.12-4.26-.73-6.25-1.31-4.34.75-6.9,4.23-8.66-3.04-9.59-1.81-12.86,6.62-19.51,2.3-1.81,4.11-4.26,6.27-6.28,4.69-4.37,8.07-4.15,13.6-.64,9.68,6.15,9.02,15.62,8.68,25.04-.18,4.61-1.6,9.32-.98,13.78,1.23,8.84,5.17,11.53,13.85,9.72,9.29-1.94,16.89,2.08,24.33,6.21,5.1,2.83,9.48,6.95,14.22,10.43,5.31,3.89,10.46,2.6,14.6-2.51,3.51-4.34,7.67-8.27,12.03-11.77,3.24-2.6,9.7,2.42,9.09,7.4-.91,7.48-1.98,15.06-4.16,22.25-3.28,10.83,1.93,26.7,11.37,32.37.12.08.26.16.39.26.93.67,2,1.81,2.32,2.68h0l.5.02Z"/></svg>