<?xml version="1.0" encoding="UTF-8" standalone="no"?> <svg xmlns="http://www.w3.org/2000/svg" version="1.0" width="4000.000000pt" height="3239.000000pt" viewBox="0 0 4000.000000 3239.000000" preserveAspectRatio="xMidYMid meet"><g transform="translate(0.000000,3239.000000) scale(0.100000,-0.100000)" fill="#000000" stroke="none"><path d="M29850 32244 c-23 -4 -67 -15 -176 -43 -23 -6 -106 -11 -185 -11 -101 0 -161 -5 -199 -16 -30 -8 -84 -19 -120 -24 -36 -5 -81 -14 -100 -19 -19 -5 -98 -19 -175 -31 -77 -12 -160 -26 -185 -31 -25 -6 -67 -14 -95 -19 -27 -4 -97 -20 -155 -35 -58 -15 -145 -34 -195 -41 -49 -8 -111 -21 -137 -29 -26 -8 -58 -15 -72 -15 -14 0 -27 -4 -30 -9 -3 -5 -23 -12 -43 -15 -34 -6 -110 -32 -168 -57 -68 -29 -106 -41 -150 -50 -27 -5 -65 -16 -83 -25 -18 -8 -55 -19 -83 -23 -28 -5 -55 -13 -62 -20 -6 -6 -21 -11 -34 -11 -13 0 -23 -4 -23 -9 0 -5 -11 -12 -25 -15 -14 -4 -53 -19 -87 -36 -76 -35 -151 -60 -181 -60 -12 0 -36 -8 -53 -19 -17 -10 -41 -22 -55 -26 -13 -4 -51 -20 -84 -36 -33 -15 -76 -35 -95 -43 -19 -9 -49 -24 -66 -35 -16 -10 -41 -22 -55 -26 -13 -4 -43 -21 -66 -36 -23 -16 -45 -29 -50 -29 -4 0 -28 -14 -53 -31 -25 -16 -55 -34 -67 -39 -12 -5 -41 -22 -65 -37 -56 -36 -142 -82 -248 -133 -47 -23 -94 -47 -105 -53 -11 -6 -65 -33 -120 -61 -55 -27 -102 -52 -105 -55 -3 -3 -25 -20 -50 -36 -25 -17 -46 -33 -48 -37 -2 -5 -9 -8 -16 -8 -6 0 -44 -16 -84 -35 -62 -29 -98 -52 -157 -98 -5 -4 -37 -28 -70 -52 -163 -121 -189 -142 -215 -167 -15 -16 -29 -28 -32 -28 -3 0 -23 -16 -44 -36 -22 -19 -52 -45 -67 -57 -16 -12 -51 -42 -79 -67 -74 -65 -157 -128 -208 -158 -40 -23 -412 -383 -436 -422 -5 -9 -28 -30 -51 -48 -23 -18 -51 -48 -62 -66 -12 -18 -41 -49 -64 -67 -51 -40 -181 -185 -295 -331 -28 -35 -75 -83 -104 -107 -29 -23 -78 -76 -108 -118 -30 -42 -70 -94 -87 -115 -18 -22 -33 -43 -33 -47 0 -4 -8 -16 -19 -27 -10 -11 -23 -30 -30 -42 -15 -29 -109 -152 -135 -178 -20 -20 -34 -36 -161 -190 -33 -40 -73 -99 -89 -131 -16 -32 -35 -65 -42 -73 -6 -8 -39 -67 -71 -130 -67 -130 -72 -138 -130 -228 -24 -36 -43 -68 -43 -72 0 -4 -7 -13 -16 -21 -8 -7 -27 -33 -40 -58 -13 -25 -32 -59 -42 -76 -9 -16 -33 -57 -51 -90 -19 -33 -46 -78 -60 -100 -14 -22 -61 -105 -103 -185 -43 -80 -89 -165 -102 -190 -50 -94 -126 -245 -126 -252 0 -3 -18 -44 -39 -91 -22 -46 -43 -97 -47 -113 -4 -16 -17 -45 -28 -64 -34 -55 -96 -205 -96 -229 0 -11 -4 -20 -31 -73 -20 -38 -59 -161 -59 -184 0 -13 -4 -25 -9 -28 -4 -3 -11 -24 -14 -46 -3 -22 -34 -131 -70 -243 -81 -250 -104 -329 -112 -390 -3 -26 -13 -59 -21 -75 -7 -15 -14 -40 -14 -57 0 -16 -7 -57 -16 -90 -8 -33 -17 -71 -20 -85 -3 -14 -9 -34 -14 -45 -16 -37 -49 -190 -56 -260 -5 -53 -14 -80 -35 -111 -41 -60 -47 -125 -78 -819 -5 -112 -10 -148 -26 -180 -19 -36 -20 -56 -18 -205 2 -91 6 -188 9 -216 4 -36 -1 -78 -16 -143 -20 -82 -22 -107 -16 -244 13 -317 22 -407 54 -517 43 -151 45 -162 46 -296 1 -75 5 -126 13 -135 6 -8 14 -36 18 -64 4 -27 14 -75 22 -105 8 -30 19 -73 24 -95 5 -22 16 -69 24 -105 9 -36 20 -114 25 -175 5 -60 13 -126 18 -145 10 -40 50 -165 62 -195 30 -76 53 -152 60 -202 16 -111 49 -239 90 -353 45 -124 57 -161 90 -285 12 -44 28 -90 36 -102 8 -12 14 -27 14 -33 0 -6 15 -43 34 -83 43 -92 66 -160 66 -197 0 -17 4 -38 9 -48 5 -9 17 -35 26 -57 21 -48 37 -81 98 -201 26 -50 47 -94 47 -97 0 -20 162 -352 198 -407 13 -19 43 -77 67 -127 24 -51 58 -113 75 -138 17 -25 40 -70 50 -99 23 -66 38 -92 112 -183 69 -85 141 -198 256 -403 14 -25 37 -61 51 -80 14 -19 35 -51 45 -70 26 -47 52 -82 111 -148 28 -32 63 -75 77 -98 14 -22 43 -60 64 -85 22 -25 55 -65 74 -90 19 -24 46 -55 60 -69 31 -31 260 -296 315 -365 22 -27 48 -59 58 -69 9 -11 17 -23 17 -27 0 -5 33 -34 74 -66 41 -32 117 -96 168 -142 51 -46 124 -112 162 -145 92 -81 166 -155 166 -165 0 -14 114 -128 155 -154 22 -14 60 -44 84 -66 24 -23 46 -41 49 -41 2 0 12 -8 21 -18 9 -10 38 -36 66 -57 27 -20 79 -63 115 -94 35 -31 69 -59 75 -63 5 -4 31 -25 56 -45 26 -21 59 -47 75 -58 15 -11 46 -34 68 -52 81 -63 328 -225 441 -288 28 -15 73 -49 100 -75 28 -26 71 -59 96 -73 25 -13 54 -29 65 -35 10 -6 37 -19 59 -28 22 -10 63 -37 91 -61 49 -41 174 -106 259 -133 62 -20 149 -70 280 -161 128 -88 210 -128 262 -129 17 0 35 -4 38 -10 3 -5 14 -10 24 -10 10 0 40 -11 67 -25 27 -14 57 -25 66 -25 9 0 20 -4 23 -10 3 -6 19 -10 36 -10 44 0 119 -38 119 -61 0 -11 -44 -63 -103 -122 -57 -56 -124 -129 -149 -162 -25 -33 -79 -91 -118 -130 -40 -38 -95 -97 -123 -130 -64 -77 -300 -326 -487 -514 -80 -80 -158 -166 -173 -191 -16 -25 -51 -63 -79 -85 -83 -66 -132 -117 -168 -173 -18 -30 -50 -65 -72 -78 -21 -13 -49 -42 -63 -64 -14 -23 -40 -57 -58 -78 -18 -20 -60 -73 -92 -116 -33 -44 -73 -87 -90 -97 -16 -10 -100 -87 -185 -171 -86 -84 -181 -175 -212 -202 -31 -28 -64 -66 -73 -85 -10 -22 -48 -62 -96 -101 -45 -36 -104 -94 -132 -130 -29 -36 -56 -67 -62 -69 -14 -5 -101 -95 -210 -216 -49 -55 -123 -133 -164 -174 -41 -40 -97 -101 -125 -135 -70 -85 -112 -129 -261 -281 -71 -72 -149 -151 -171 -176 -23 -25 -55 -55 -71 -67 -17 -12 -41 -42 -54 -68 -17 -32 -37 -54 -63 -67 -21 -11 -74 -54 -118 -96 -89 -85 -110 -97 -188 -107 -51 -6 -98 -24 -126 -49 -150 -130 -156 -135 -164 -135 -11 0 -130 -124 -145 -151 -8 -13 -19 -35 -25 -49 -5 -14 -15 -33 -20 -42 -6 -10 -10 -23 -10 -30 0 -13 288 -298 363 -358 26 -22 82 -75 123 -119 41 -44 92 -90 112 -103 20 -12 65 -50 100 -85 35 -34 73 -68 85 -76 12 -8 59 -49 105 -92 59 -56 82 -83 82 -101 0 -20 -84 -177 -117 -219 -92 -116 -157 -229 -173 -299 -18 -80 33 -303 100 -441 35 -71 140 -182 250 -264 90 -67 79 -58 176 -151 74 -71 146 -129 236 -190 21 -14 81 -66 135 -116 112 -104 139 -128 212 -183 29 -21 89 -75 134 -118 45 -43 105 -97 132 -119 28 -21 64 -52 80 -68 27 -26 64 -56 158 -128 15 -11 41 -28 57 -37 28 -16 94 -69 175 -142 22 -20 81 -70 131 -110 50 -41 148 -122 218 -182 69 -59 129 -107 133 -107 5 -1 28 -21 53 -45 25 -25 48 -45 52 -45 4 0 43 -30 85 -68 83 -71 140 -118 218 -178 27 -20 60 -50 74 -68 79 -94 170 -175 325 -289 206 -151 236 -174 307 -239 101 -90 136 -120 264 -220 61 -48 141 -118 180 -157 38 -39 75 -71 81 -71 6 0 19 -9 29 -20 10 -11 27 -22 38 -26 40 -13 182 -103 222 -141 22 -21 67 -60 100 -88 33 -27 116 -104 185 -172 69 -67 141 -135 160 -150 49 -40 253 -215 335 -288 128 -114 170 -150 232 -198 33 -27 96 -86 138 -133 58 -64 99 -98 168 -139 59 -35 119 -81 167 -130 65 -65 133 -120 201 -161 10 -6 69 -63 132 -127 63 -64 120 -117 127 -117 15 0 52 -31 148 -121 40 -38 96 -85 125 -104 28 -18 73 -53 99 -77 27 -24 73 -63 104 -88 31 -25 91 -74 133 -110 43 -36 95 -78 116 -95 22 -16 66 -52 100 -80 33 -27 65 -53 70 -57 6 -4 35 -27 65 -51 52 -40 78 -59 137 -98 13 -9 67 -58 120 -110 55 -53 115 -102 142 -114 25 -12 52 -29 60 -38 7 -10 18 -17 23 -17 5 0 35 -20 66 -43 82 -63 161 -117 170 -117 4 0 30 -16 59 -35 28 -19 63 -37 78 -41 57 -14 124 -55 211 -131 51 -43 103 -86 115 -96 33 -26 139 -77 158 -77 9 0 27 16 41 35 14 19 32 35 41 35 9 0 56 -40 105 -90 49 -49 112 -106 139 -127 28 -21 116 -103 196 -183 490 -486 616 -600 659 -600 16 0 204 189 470 471 63 67 140 141 171 164 109 80 148 117 180 168 47 75 94 123 174 174 39 25 120 93 182 152 62 58 130 122 152 141 22 19 57 57 79 85 69 87 185 230 191 235 3 3 18 23 33 45 15 22 41 56 58 75 18 19 46 55 63 80 16 25 38 54 47 65 29 33 114 203 154 310 93 245 160 340 378 540 28 26 48 55 56 82 15 49 86 123 119 123 13 0 49 24 86 57 35 32 83 71 108 88 24 16 46 33 49 36 3 3 25 19 50 36 25 17 79 67 120 112 41 45 98 96 125 113 56 35 176 154 245 242 25 32 53 67 63 78 9 12 17 25 17 29 0 4 18 26 41 49 62 63 159 173 159 182 0 11 105 164 169 245 31 39 74 95 96 124 22 28 66 83 98 120 31 37 57 70 57 74 0 3 23 41 50 85 27 44 50 82 50 85 0 3 18 29 41 58 37 48 117 122 179 164 56 39 118 106 140 150 14 31 64 88 136 158 148 144 180 203 137 251 -10 11 -49 55 -88 99 -38 44 -104 115 -147 159 -42 43 -102 112 -135 154 -59 77 -377 402 -393 402 -5 0 -12 9 -15 20 -3 11 -11 20 -17 20 -5 0 -26 16 -46 36 -20 20 -52 48 -71 63 -20 14 -146 136 -281 271 -255 255 -491 479 -519 494 -9 5 -59 52 -111 106 -52 53 -137 135 -189 181 -51 46 -180 170 -286 274 -106 105 -220 215 -253 245 -34 30 -155 146 -269 258 -115 112 -259 249 -322 305 -63 56 -220 206 -348 332 -129 127 -268 262 -310 300 -41 39 -191 183 -332 321 -141 137 -292 281 -336 319 -44 38 -141 130 -215 205 -74 75 -169 163 -210 195 -41 33 -246 231 -456 440 -209 209 -414 409 -455 445 -41 36 -146 138 -234 228 -88 90 -180 183 -205 206 -25 22 -94 91 -155 152 -60 60 -150 146 -200 190 -49 43 -201 189 -336 324 -338 336 -468 458 -587 553 -39 32 -97 89 -127 127 -31 39 -59 70 -63 70 -11 0 -172 159 -172 170 0 5 -4 10 -9 10 -8 0 -36 26 -266 249 -72 69 -151 143 -175 163 -25 21 -62 52 -83 69 -47 40 -97 111 -97 138 0 20 4 21 88 15 52 -3 107 -14 137 -26 39 -16 69 -20 142 -19 53 1 121 -5 156 -13 100 -23 935 -43 1079 -25 42 6 146 11 230 13 156 4 393 26 483 46 28 6 88 14 135 19 96 10 295 46 335 61 14 6 62 10 105 10 43 0 81 4 84 9 3 4 23 11 43 14 21 4 57 16 80 27 23 11 50 20 61 20 10 0 23 5 29 11 6 6 50 14 99 19 112 11 320 62 382 94 17 9 40 16 51 16 11 0 22 4 25 9 3 5 17 12 31 15 14 4 54 20 87 36 34 17 66 30 70 30 5 0 34 11 64 25 30 14 61 25 69 25 9 0 23 4 33 9 9 6 60 22 112 36 52 15 103 31 112 36 10 5 25 9 34 9 8 0 46 12 82 26 130 50 160 64 267 126 33 18 94 50 135 70 41 19 131 62 200 95 69 33 136 64 150 68 44 13 95 39 103 52 4 7 14 13 21 13 7 0 21 8 32 18 37 33 147 101 289 177 39 21 72 41 75 44 3 3 25 16 50 29 63 31 128 68 172 97 21 14 41 25 44 25 4 0 31 16 60 35 29 19 55 35 58 35 3 0 30 16 60 35 30 19 58 35 62 35 4 0 22 11 40 25 18 14 35 25 39 25 13 0 317 197 395 255 30 23 60 44 67 46 6 2 51 42 100 90 48 47 115 105 147 129 33 25 74 58 91 75 18 16 51 46 75 65 24 19 58 50 76 69 18 18 43 41 57 50 41 27 165 139 312 281 197 191 232 228 278 289 22 30 46 62 53 70 142 179 195 244 230 281 23 25 57 63 75 85 19 22 36 42 39 45 3 3 15 25 27 50 20 43 33 61 94 134 14 17 43 56 64 86 22 30 42 57 45 60 12 10 48 67 80 125 28 51 78 124 145 210 15 20 50 81 80 141 9 17 24 40 33 50 10 11 31 37 47 59 17 22 33 42 36 45 9 7 89 163 89 173 0 5 13 27 28 50 16 23 40 67 54 97 14 30 52 109 83 175 31 66 64 138 72 160 9 22 26 51 39 65 12 14 39 61 59 105 56 123 58 128 83 155 12 14 22 32 22 41 0 8 3 19 6 22 7 7 32 74 65 177 39 119 62 175 90 210 45 59 84 156 93 234 3 27 15 65 26 83 11 19 20 47 20 63 0 16 4 31 9 34 4 3 11 29 15 58 8 65 21 108 51 174 13 28 29 71 35 95 7 24 16 53 20 64 8 20 11 33 45 181 9 40 25 91 36 115 12 23 25 67 30 98 10 65 30 146 52 216 9 28 23 106 31 175 8 69 21 148 29 175 30 99 37 133 37 176 0 24 5 61 11 83 13 49 27 122 39 211 5 39 14 102 19 140 13 87 29 715 27 1050 -2 242 -16 509 -36 685 -5 47 -14 150 -20 230 -6 80 -21 197 -32 260 -12 63 -25 151 -28 195 -7 78 -22 170 -62 370 -10 55 -25 144 -33 198 -7 54 -18 104 -24 110 -6 6 -11 20 -11 32 0 11 -9 47 -20 80 -11 33 -42 150 -70 260 -27 110 -60 234 -73 275 -14 41 -28 91 -32 110 -11 57 -45 150 -81 220 -19 36 -34 72 -34 80 -1 26 -35 119 -50 137 -21 24 -41 69 -90 198 -23 61 -45 115 -50 120 -4 6 -10 24 -14 40 -7 27 -61 150 -86 197 -6 10 -10 22 -10 28 0 12 -52 122 -78 165 -10 17 -35 56 -55 87 -20 31 -37 64 -37 73 0 31 -87 179 -228 388 -51 75 -96 145 -99 155 -4 9 -18 35 -33 57 -15 22 -30 49 -34 60 -3 11 -21 43 -39 70 -18 28 -68 102 -110 165 -42 63 -96 142 -119 174 -52 72 -73 102 -93 139 -9 15 -20 27 -25 27 -6 0 -10 5 -10 11 0 6 -24 36 -54 67 -30 32 -105 120 -166 197 -141 178 -131 167 -163 190 -16 11 -41 40 -57 65 -16 25 -75 88 -131 140 -56 52 -105 105 -110 118 -5 12 -15 22 -22 22 -7 0 -36 26 -64 58 -57 65 -129 140 -277 292 -57 58 -105 110 -107 115 -2 6 -29 23 -59 39 -54 28 -135 85 -175 123 -11 10 -58 51 -105 90 -47 39 -94 83 -105 97 -11 14 -25 25 -31 26 -7 0 -14 6 -17 14 -3 7 -43 41 -89 75 -45 34 -90 68 -98 74 -8 7 -33 26 -55 42 -22 16 -51 39 -65 51 -14 12 -56 39 -95 59 -71 37 -133 81 -217 151 -65 55 -91 74 -100 74 -4 0 -27 18 -50 40 -24 22 -51 43 -61 46 -11 3 -38 18 -60 34 -23 15 -79 47 -125 71 -45 24 -117 69 -159 101 -42 32 -81 58 -87 58 -6 0 -22 9 -36 20 -14 11 -36 20 -49 20 -13 0 -38 11 -55 24 -18 13 -63 34 -101 47 -39 13 -83 34 -98 46 -16 13 -40 23 -53 23 -14 0 -42 11 -62 25 -20 14 -43 25 -52 25 -21 0 -137 43 -185 69 -22 11 -45 21 -52 21 -6 0 -13 4 -15 8 -4 9 -110 62 -126 62 -6 0 -12 5 -14 10 -2 6 -26 17 -53 24 -28 7 -90 32 -139 55 -95 45 -162 71 -186 71 -8 0 -50 18 -93 40 -43 22 -92 40 -109 40 -16 0 -41 9 -55 20 -14 11 -36 20 -48 20 -19 0 -65 17 -220 80 -55 23 -127 43 -195 55 -41 7 -102 20 -135 29 -33 8 -96 22 -140 31 -44 9 -90 21 -103 26 -13 5 -38 9 -56 9 -19 0 -51 6 -73 14 -21 7 -88 19 -148 25 -61 7 -121 16 -135 22 -14 5 -63 13 -110 19 -47 5 -105 14 -130 20 -25 6 -128 15 -230 20 -208 10 -333 23 -400 40 -32 9 -243 13 -720 15 -371 2 -686 1 -700 -1z"></path><path d="M11975 29458 c-36 -19 -136 -122 -172 -176 l-36 -54 -6 -576 c-4 -318 -4 -624 0 -682 8 -144 -2 -901 -12 -921 -12 -23 -50 -28 -249 -34 -96 -3 -191 -9 -210 -15 -20 -6 -238 -15 -500 -20 -316 -7 -497 -14 -565 -25 -59 -8 -172 -15 -275 -15 -196 0 -408 -13 -580 -35 -63 -8 -174 -15 -246 -15 -86 0 -135 -4 -140 -11 -3 -6 -10 -44 -15 -85 -5 -43 -14 -81 -23 -90 -22 -22 -28 -69 -22 -170 3 -49 10 -179 15 -289 6 -110 13 -216 15 -235 9 -60 35 -387 46 -580 6 -102 13 -203 16 -225 3 -22 10 -98 16 -170 5 -71 13 -175 18 -230 4 -55 13 -212 19 -350 6 -137 15 -286 21 -330 29 -227 40 -364 50 -610 6 -148 15 -292 20 -320 12 -62 27 -232 40 -440 13 -203 25 -342 44 -525 8 -80 20 -246 26 -370 12 -246 22 -371 43 -585 8 -77 20 -237 27 -355 6 -118 16 -246 21 -285 17 -128 37 -367 49 -605 7 -129 16 -266 21 -305 15 -119 28 -288 44 -575 9 -151 21 -313 27 -360 14 -105 21 -223 42 -690 9 -201 23 -403 31 -450 8 -47 19 -191 26 -320 6 -129 20 -343 31 -475 11 -132 24 -301 28 -375 5 -74 13 -180 19 -235 6 -55 16 -206 22 -335 5 -129 14 -253 20 -275 5 -22 13 -121 19 -220 10 -187 24 -402 40 -590 5 -60 18 -276 29 -480 11 -203 25 -413 30 -465 6 -52 15 -187 21 -300 6 -113 18 -295 26 -405 8 -110 21 -317 29 -460 15 -256 25 -404 45 -680 6 -77 15 -214 20 -305 6 -91 15 -205 20 -255 5 -49 10 -128 10 -175 0 -47 4 -123 9 -170 20 -179 33 -352 41 -545 5 -110 14 -243 19 -295 15 -136 32 -393 52 -775 5 -110 14 -243 18 -295 5 -52 16 -223 25 -380 16 -275 27 -428 47 -630 5 -52 13 -216 18 -365 9 -271 22 -489 41 -685 5 -58 10 -164 10 -235 0 -72 5 -161 10 -200 12 -81 37 -414 50 -665 5 -96 12 -195 15 -220 5 -44 12 -153 40 -710 8 -157 22 -355 30 -440 7 -85 14 -195 14 -245 1 -49 5 -144 11 -210 6 -66 17 -257 26 -425 8 -168 19 -321 24 -340 5 -19 14 -156 20 -305 17 -438 42 -859 58 -985 6 -47 16 -209 22 -360 6 -151 16 -318 21 -370 5 -52 14 -146 19 -208 12 -144 52 -273 108 -349 l23 -33 97 0 c53 1 142 5 197 11 55 5 217 14 360 19 451 17 519 20 570 31 84 17 326 23 392 10 48 -9 68 -8 109 4 33 9 135 19 285 25 129 6 279 15 334 20 55 5 187 13 292 19 106 5 198 13 204 16 10 7 100 12 559 35 96 4 274 13 395 19 121 6 389 18 595 26 515 21 728 32 845 46 55 6 179 13 275 15 96 2 194 7 218 12 49 11 95 50 112 96 7 17 18 45 25 61 7 17 23 68 35 115 12 47 30 103 39 125 10 22 26 65 36 95 10 30 21 64 25 75 31 84 32 106 31 358 -1 143 -4 264 -7 269 -8 13 -27 354 -53 973 -12 285 -27 477 -42 535 -5 19 -9 99 -9 177 l0 142 30 16 c27 14 88 15 518 11 268 -2 692 -10 942 -16 691 -17 1465 -21 1529 -9 46 9 63 20 107 64 84 84 104 139 109 298 3 73 10 281 16 462 6 182 12 490 13 685 2 195 8 695 14 1110 6 415 16 1221 21 1790 6 569 15 1260 21 1535 5 275 15 988 20 1585 6 597 15 1562 21 2145 5 583 10 1229 10 1435 -1 206 6 818 14 1360 8 542 15 1235 15 1540 0 305 5 665 10 800 8 212 24 1792 25 2430 1 374 25 2613 29 2651 2 19 7 453 10 965 9 1276 25 2773 36 3413 5 293 7 546 3 562 -3 18 -30 53 -70 91 -71 70 -70 68 -134 120 l-46 37 -259 10 c-634 27 -1854 61 -2314 66 -228 2 -579 9 -780 15 -874 25 -1146 30 -1490 30 -260 0 -397 4 -475 15 -74 9 -258 16 -560 20 -247 3 -526 8 -620 10 -93 2 -408 9 -700 14 -291 6 -584 13 -650 15 -77 4 -127 2 -140 -6z"></path><path d="M1580 29073 c-407 -28 -714 -145 -932 -355 l-57 -55 -183 103 c-100 57 -185 101 -187 98 -3 -3 -31 -49 -63 -102 -50 -86 -55 -98 -41 -109 9 -7 89 -54 178 -105 l162 -92 -22 -50 c-38 -87 -75 -214 -92 -320 -24 -151 -14 -426 20 -561 56 -219 135 -363 282 -510 197 -196 440 -305 780 -350 144 -19 442 -19 588 0 332 43 598 165 787 359 24 25 47 46 51 46 4 0 89 -48 190 -106 149 -87 184 -103 194 -92 6 7 31 45 55 83 24 39 49 80 57 91 13 21 7 25 -164 124 -98 56 -182 105 -186 109 -4 4 6 42 23 83 97 243 115 578 46 850 -97 383 -354 647 -756 778 -212 69 -486 100 -730 83z m490 -328 c419 -76 670 -282 761 -625 19 -72 23 -112 23 -255 1 -185 -15 -277 -68 -397 l-25 -57 -753 436 c-414 239 -846 489 -960 555 l-208 119 30 26 c59 49 186 114 290 147 89 29 185 49 335 70 79 11 484 -2 575 -19z m-432 -971 c521 -300 951 -550 956 -554 13 -12 -108 -98 -199 -141 -165 -78 -349 -116 -600 -126 -341 -12 -630 45 -838 168 -95 56 -223 184 -272 272 -130 235 -148 578 -45 845 17 45 36 82 41 82 5 0 435 -246 957 -546z"></path><path d="M3960 28725 l0 -355 710 0 710 0 0 -450 c0 -292 -4 -468 -11 -502 -26 -124 -117 -246 -216 -290 -98 -43 -139 -49 -468 -58 -363 -11 -573 -25 -660 -43 l-60 -12 -3 -376 -2 -375 82 27 c114 38 254 57 513 69 121 6 312 15 425 20 225 10 285 22 395 76 134 65 238 185 294 340 l28 76 26 -54 c101 -204 269 -365 457 -437 151 -59 347 -82 510 -61 462 59 778 402 845 917 12 94 15 268 15 979 l0 864 -1795 0 -1795 0 0 -355z m2990 -777 c0 -233 -5 -454 -10 -493 -30 -210 -135 -356 -295 -411 -30 -10 -93 -19 -160 -21 -94 -4 -119 -2 -174 17 -157 53 -256 172 -313 377 -20 73 -22 105 -26 516 l-3 437 490 0 491 0 0 -422z"></path><path d="M1531 26279 c-512 -41 -893 -264 -1076 -629 -88 -175 -125 -347 -125 -580 0 -362 104 -637 318 -841 154 -148 373 -252 605 -287 l57 -9 0 147 0 147 -52 7 c-79 11 -225 62 -298 106 -181 107 -307 290 -356 515 -27 127 -23 344 9 466 61 233 183 389 395 506 148 82 367 139 580 150 l112 6 0 -1028 0 -1028 128 6 c568 29 987 260 1171 648 116 244 141 549 66 827 -115 428 -476 740 -973 842 -179 36 -361 46 -561 29z m530 -325 c127 -23 215 -51 314 -100 226 -110 370 -277 441 -509 25 -82 28 -104 28 -255 0 -140 -4 -177 -22 -244 -62 -224 -198 -387 -407 -490 -126 -62 -243 -94 -442 -121 l-43 -5 0 870 0 870 24 0 c13 0 61 -7 107 -16z"></path><path d="M5225 26074 c-257 -20 -459 -71 -635 -159 -452 -228 -691 -687 -667 -1279 7 -173 28 -299 72 -433 126 -379 377 -617 765 -723 128 -35 117 -52 124 183 3 111 7 268 9 348 l3 147 -40 12 c-116 34 -229 128 -289 237 -90 167 -91 458 -1 634 31 63 118 157 184 199 96 62 233 102 387 113 l63 5 2 -971 3 -972 160 2 c239 3 399 27 590 89 454 148 751 488 830 949 22 129 23 375 1 505 -99 607 -513 1003 -1144 1095 -103 15 -333 25 -417 19z m563 -759 c151 -36 301 -150 370 -282 68 -130 93 -345 57 -488 -38 -150 -129 -267 -257 -329 -67 -34 -182 -65 -235 -66 l-23 0 0 590 c0 465 3 590 13 590 6 0 40 -7 75 -15z"></path><path d="M360 23345 l0 -145 773 0 c434 0 813 -5 865 -10 540 -57 872 -432 849 -960 -9 -211 -60 -343 -178 -462 -83 -85 -192 -140 -330 -168 -89 -19 -142 -20 -1036 -20 l-943 0 0 -150 0 -151 1013 4 c1011 3 1012 3 1097 25 362 96 583 367 631 773 36 311 -48 652 -215 867 -55 71 -167 179 -225 218 l-45 29 227 3 227 2 0 145 0 145 -1355 0 -1355 0 0 -145z"></path><path d="M6190 23055 l0 -235 -1115 0 -1115 0 0 -345 0 -345 1115 0 1115 0 0 -295 0 -295 290 0 290 0 0 296 0 296 153 -4 c177 -4 203 -13 240 -88 20 -42 22 -60 24 -270 l3 -225 294 -3 294 -2 7 124 c4 69 5 232 2 363 -4 201 -8 250 -26 318 -60 227 -192 375 -395 442 -78 26 -91 27 -338 31 l-258 4 0 234 0 234 -290 0 -290 0 0 -235z"></path><path d="M4645 21475 c-362 -67 -598 -325 -684 -747 -86 -419 -37 -946 115 -1250 114 -227 295 -368 546 -424 105 -24 340 -24 433 0 123 32 211 81 301 171 178 176 254 385 334 917 23 150 50 309 61 352 40 163 108 237 224 244 198 13 308 -180 292 -508 -14 -269 -103 -405 -284 -435 l-43 -7 0 -339 0 -339 40 0 c60 0 186 28 260 57 339 136 526 454 560 957 21 314 -30 616 -142 841 -116 231 -296 387 -515 447 -109 29 -314 29 -428 -1 -311 -81 -494 -320 -584 -762 -11 -53 -34 -197 -51 -320 -35 -255 -58 -358 -99 -444 -49 -105 -106 -145 -208 -145 -67 0 -143 31 -185 76 -37 41 -75 119 -95 200 -24 99 -24 372 0 469 49 194 150 300 305 321 l52 7 0 338 0 339 -67 -1 c-38 0 -99 -7 -138 -14z"></path><path d="M3960 18350 l0 -349 878 -3 c799 -3 882 -5 937 -21 222 -64 371 -213 420 -418 20 -86 20 -250 -1 -320 -39 -129 -106 -215 -214 -269 -118 -60 -122 -60 -1116 -60 l-904 0 0 -345 0 -345 1030 0 c1120 0 1090 -1 1255 56 197 69 368 228 461 429 96 209 125 538 69 781 -37 160 -124 326 -235 446 l-62 68 639 2 638 3 0 345 0 345 -1897 3 -1898 2 0 -350z"></path><path d="M4655 15940 c-366 -57 -617 -303 -707 -693 -29 -125 -32 -426 -5 -562 45 -224 116 -380 244 -532 l45 -53 -136 0 -136 0 0 -355 0 -356 33 6 c17 3 64 10 102 16 45 8 411 14 1040 18 967 7 970 7 1044 30 324 97 513 333 591 738 28 143 40 376 30 559 -15 267 -56 439 -147 624 -51 104 -65 124 -152 211 -82 81 -110 102 -191 142 -111 55 -227 84 -363 94 l-97 6 2 -334 3 -334 60 -7 c222 -28 336 -233 322 -578 -9 -221 -54 -343 -149 -407 -57 -38 -122 -53 -228 -53 -78 0 -78 0 -84 28 -3 15 -40 250 -81 522 -42 272 -87 537 -100 588 -57 214 -129 347 -260 478 -145 145 -280 201 -505 209 -63 2 -142 0 -175 -5z m270 -734 c83 -38 144 -119 179 -236 19 -63 62 -305 106 -595 17 -110 33 -213 36 -229 l6 -29 -143 6 c-159 5 -227 20 -329 70 -183 90 -302 307 -317 577 -6 126 6 203 47 287 56 114 153 172 290 172 58 1 86 -4 125 -23z"></path><path d="M3960 12670 l0 -350 1898 2 1897 3 0 345 0 345 -1897 3 -1898 2 0 -350z"></path><path d="M5131 12029 c-514 -58 -874 -289 -1067 -684 -89 -182 -131 -362 -141 -600 -25 -608 225 -1064 689 -1254 67 -27 223 -71 254 -71 12 0 22 202 26 528 l2 174 -59 20 c-120 40 -217 126 -274 244 -43 87 -61 172 -61 300 0 377 214 594 623 630 l77 7 0 -972 0 -971 154 0 c939 0 1510 558 1445 1410 -27 367 -153 650 -390 875 -191 182 -423 293 -729 346 -134 24 -419 33 -549 18z m697 -764 c192 -61 334 -214 387 -420 19 -76 19 -250 0 -333 -30 -129 -111 -245 -216 -313 -56 -36 -170 -74 -246 -82 l-53 -6 0 589 0 590 24 0 c14 0 60 -11 104 -25z"></path></g></svg> 